<svg width="50px" height="50px" viewBox="0 0 50 50" version="1.1" xmlns="http://www.w3.org/2000/svg" xmlns:xlink="http://www.w3.org/1999/xlink">
    <!-- Generator: Sketch 48.2 (47327) - http://www.bohemiancoding.com/sketch -->
    <desc>Created with Sketch.</desc>
    <defs></defs>
    <g id="Sing-Up" stroke="none" stroke-width="1" fill="none" fill-rule="evenodd">
        <g id="Confirmation-E-Mail" transform="translate(-111.000000, -840.000000)" fill="#CCD1D9">
            <g id="Need-help?-If-you-re-+-Shape" transform="translate(111.000000, 817.000000)">
                <path d="M25,23 C11.25,23 0,34.25 0,48 C0,61.75 11.25,73 25,73 C38.75,73 50,61.75 50,48 C50,34.25 38.75,23 25,23 L25,23 Z M27.5,65.5 L22.5,65.5 L22.5,60.5 L27.5,60.5 L27.5,65.5 L27.5,65.5 Z M32.75,46.25 L30.5,48.5 C28.5,50.25 27.5,51.75 27.5,55.5 L22.5,55.5 L22.5,54.25 C22.5,51.5 23.5,49 25.5,47.25 L28.5,44 C29.5,43.25 30,42 30,40.5 C30,37.75 27.75,35.5 25,35.5 C22.25,35.5 20,37.75 20,40.5 L15,40.5 C15,35 19.5,30.5 25,30.5 C30.5,30.5 35,35 35,40.5 C35,42.75 34,44.75 32.75,46.25 L32.75,46.25 Z" id="Shape"></path>
            </g>
        </g>
    </g>
</svg>