<svg id="Layer_1" data-name="Layer 1" xmlns="http://www.w3.org/2000/svg" viewBox="0 0 272.14 93.13"><defs><style>.cls-1{fill:#ed1c24;}</style></defs><title>imact-red-logo</title><path class="cls-1" d="M70.89,43.82h.16a12.41,12.41,0,0,1,10.08-5A13.09,13.09,0,0,1,93,45.24a14.27,14.27,0,0,1,12-6.46c10.5,0,13.1,7.89,13.1,16.88v25.7H106.33V59.69c0-4,.26-11.51-5.54-11.51-6.38,0-6.3,8.66-6.3,12.94V81.36H82.73V60.45c0-4,.5-12.27-5.63-12.27-6.55,0-6.21,8.57-6.21,12.94V81.36H59.13V40.12H70.89Z" transform="translate(-0.01 -1.91)"/><path class="cls-1" d="M135.74,43.9a15.2,15.2,0,0,1,11.42-5.12C158.84,38.78,166,49.7,166,60.53c0,11.26-6.89,22.18-19.07,22.18-4.2,0-8.65-1.85-11-5.21h-.17V94.86H124V40.12h11.76Zm18.31,16.8c0-5.54-3.69-11.51-9.74-11.51s-9.75,6-9.75,11.51,3.7,11.59,9.75,11.59S154.05,66.24,154.05,60.7Z" transform="translate(-0.01 -1.91)"/><path class="cls-1" d="M209.57,81.36H198V77.58h-.17a14.25,14.25,0,0,1-11.17,5.13c-12.1,0-19-11-19-22.18,0-10.92,7-21.75,18.82-21.75A15.26,15.26,0,0,1,198,44V40.12h11.59ZM199.15,60.7c0-5.54-3.78-11.51-9.83-11.51s-9.74,6-9.74,11.51,3.7,11.59,9.74,11.59S199.15,66.24,199.15,60.7Z" transform="translate(-0.01 -1.91)"/><path class="cls-1" d="M244.43,52.72c-2.52-2.52-5-4-8.66-4-6.63,0-10.41,6.21-10.41,12.26,0,6.47,4.11,11.85,10.83,11.85a11.21,11.21,0,0,0,8.24-4V80.19a20.56,20.56,0,0,1-10.17,2.52c-12.18,0-20.83-10-20.83-21.84,0-12.27,9-22.09,21.42-22.09a18.5,18.5,0,0,1,9.58,2.6Z" transform="translate(-0.01 -1.91)"/><path class="cls-1" d="M264.92,81.36H253.16V50h-4V40.12h4V26.18h11.76V40.12h7.23V50h-7.23Z" transform="translate(-0.01 -1.91)"/><polygon class="cls-1" points="0 36 31.63 0 62.56 36 49.19 36 31.56 14.88 13.31 36 0 36"/><path class="cls-1" d="M53.32,81.66,33.54,47.54a8.34,8.34,0,1,0-4.51,0L9.2,81.66H22.14V95H30V81.66h2.75V95h7.88V81.66Z" transform="translate(-0.01 -1.91)"/></svg>